<svg width="100%" height="100%" viewBox="0 0 1248 484" version="1.1" xmlns="http://www.w3.org/2000/svg" xmlns:xlink="http://www.w3.org/1999/xlink" xml:space="preserve" xmlns:serif="http://www.serif.com/" style="fill-rule:evenodd;clip-rule:evenodd;stroke-linejoin:round;stroke-miterlimit:2;">
    <g transform="matrix(1,0,0,1,-174,0)">
        <g id="Light---Curves" serif:id="Light - Curves" transform="matrix(1,0,0,1,174,0)">
            <rect x="0" y="0" width="1247.92" height="483.374" style="fill:none;"/>
            <clipPath id="_clip1">
                <rect x="0" y="0" width="1247.92" height="483.374"/>
            </clipPath>
            <g clip-path="url(#_clip1)">
                <g transform="matrix(4.590471,0,0,4.590471,-2129.342633,-3876.490448)">
                    <path d="M476.611,918.914L476.611,915.414L471.611,915.414L471.611,906.914L467.611,906.914L467.611,915.414L463.861,915.414L463.861,918.914L467.611,918.914L467.611,934.664C467.611,939.864 470.211,941.214 473.611,941.214C474.661,941.214 475.711,941.114 476.611,940.914L476.611,937.414C473.211,937.664 471.611,937.164 471.611,934.264L471.611,918.914L476.611,918.914Z" style="fill:url(#_Linear2);fill-rule:nonzero;"/>
                    <path d="M491.411,938.114C485.861,938.114 483.111,933.814 483.111,929.214L503.261,929.214C503.261,920.164 499.361,914.714 491.361,914.714C483.911,914.714 479.111,919.664 479.111,928.164C479.111,936.164 483.811,941.614 491.561,941.614C497.911,941.614 501.561,937.814 502.861,933.064L498.861,933.064C498.411,934.814 496.511,938.114 491.411,938.114ZM491.361,918.214C496.161,918.214 499.261,921.614 499.261,925.714L483.111,925.714C483.111,921.614 486.561,918.214 491.361,918.214Z" style="fill:url(#_Linear3);fill-rule:nonzero;"/>
                    <path d="M525.311,924.614L529.311,924.614C528.711,918.914 524.411,914.714 518.111,914.714C510.661,914.714 505.761,920.164 505.761,928.164C505.761,936.164 510.661,941.614 518.111,941.614C524.411,941.614 528.961,937.314 529.311,931.514L525.311,931.514C525.111,934.564 523.261,938.114 518.111,938.114C512.061,938.114 509.761,932.964 509.761,928.164C509.761,923.364 512.061,918.214 518.111,918.214C523.211,918.214 525.111,921.814 525.311,924.614Z" style="fill:url(#_Linear4);fill-rule:nonzero;"/>
                    <path d="M545.661,914.714C541.311,914.714 538.611,916.664 537.261,918.464L537.161,918.464L537.161,905.164L533.161,905.164L533.161,940.914L537.161,940.914L537.161,925.014C537.161,921.064 540.161,918.214 544.661,918.214C548.661,918.214 550.211,920.814 550.211,924.114L550.211,940.914L554.211,940.914L554.211,923.114C554.211,917.264 550.311,914.714 545.661,914.714Z" style="fill:url(#_Linear5);fill-rule:nonzero;"/>
                    <path d="M572.061,914.714C567.711,914.714 565.011,916.664 563.661,918.464L563.561,918.464L563.561,915.414L559.561,915.414L559.561,940.914L563.561,940.914L563.561,925.014C563.561,921.064 566.561,918.214 571.061,918.214C575.061,918.214 576.611,920.814 576.611,924.114L576.611,940.914L580.611,940.914L580.611,923.114C580.611,917.264 576.711,914.714 572.061,914.714Z" style="fill:url(#_Linear6);fill-rule:nonzero;"/>
                    <path d="M597.011,941.614C589.211,941.614 584.511,936.114 584.511,928.164C584.511,920.214 589.211,914.714 597.011,914.714C604.761,914.714 609.461,920.214 609.461,928.164C609.461,936.114 604.761,941.614 597.011,941.614ZM597.011,938.114C602.711,938.114 605.461,933.614 605.461,928.164C605.461,922.714 602.711,918.214 597.011,918.214C591.261,918.214 588.511,922.714 588.511,928.164C588.511,933.614 591.261,938.114 597.011,938.114Z" style="fill:url(#_Linear7);fill-rule:nonzero;"/>
                    <rect x="613.661" y="905.164" width="4" height="35.75" style="fill:url(#_Linear8);fill-rule:nonzero;"/>
                    <path d="M634.361,941.614C626.561,941.614 621.861,936.114 621.861,928.164C621.861,920.214 626.561,914.714 634.361,914.714C642.111,914.714 646.811,920.214 646.811,928.164C646.811,936.114 642.111,941.614 634.361,941.614ZM634.361,938.114C640.061,938.114 642.811,933.614 642.811,928.164C642.811,922.714 640.061,918.214 634.361,918.214C628.611,918.214 625.861,922.714 625.861,928.164C625.861,933.614 628.611,938.114 634.361,938.114Z" style="fill:url(#_Linear9);fill-rule:nonzero;"/>
                    <path d="M669.011,915.414L669.011,918.564L668.911,918.564C667.411,916.614 665.011,914.714 660.811,914.714C654.511,914.714 649.411,918.764 649.411,927.164C649.411,935.564 654.511,939.614 660.811,939.614C665.011,939.614 667.411,937.814 668.911,935.614L669.011,935.614L669.011,939.464C669.011,944.214 666.261,946.264 661.511,946.264C656.761,946.264 654.661,944.314 654.161,941.714L650.161,941.714C650.561,946.064 654.711,949.764 661.711,949.764C668.711,949.764 673.011,946.314 673.011,939.514L673.011,915.414L669.011,915.414ZM661.311,936.114C656.061,936.114 653.411,932.164 653.411,927.164C653.411,922.164 656.061,918.214 661.311,918.214C666.061,918.214 669.011,921.164 669.011,927.164C669.011,933.164 666.061,936.114 661.311,936.114Z" style="fill:url(#_Linear10);fill-rule:nonzero;"/>
                    <path d="M681.011,910.464C682.161,910.464 683.511,909.614 683.511,908.064C683.511,906.514 682.161,905.664 681.011,905.664C679.911,905.664 678.511,906.514 678.511,908.064C678.511,909.614 679.911,910.464 681.011,910.464ZM679.011,915.414L679.011,940.914L683.011,940.914L683.011,915.414L679.011,915.414Z" style="fill:url(#_Linear11);fill-rule:nonzero;"/>
                    <path d="M699.861,938.114C694.311,938.114 691.561,933.814 691.561,929.214L711.711,929.214C711.711,920.164 707.811,914.714 699.811,914.714C692.361,914.714 687.561,919.664 687.561,928.164C687.561,936.164 692.261,941.614 700.011,941.614C706.361,941.614 710.011,937.814 711.311,933.064L707.311,933.064C706.861,934.814 704.961,938.114 699.861,938.114ZM699.811,918.214C704.611,918.214 707.711,921.614 707.711,925.714L691.561,925.714C691.561,921.614 695.011,918.214 699.811,918.214Z" style="fill:url(#_Linear12);fill-rule:nonzero;"/>
                    <path d="M726.011,925.764C722.461,924.914 719.011,924.664 719.011,921.664C719.011,919.664 720.961,918.214 724.561,918.214C729.361,918.214 730.311,920.764 730.711,922.714L734.711,922.714C734.311,918.314 730.911,914.714 724.561,914.714C718.561,914.714 715.011,917.964 715.011,921.964C715.011,927.964 720.811,928.414 724.711,929.364C728.361,930.264 731.711,930.464 731.711,934.164C731.711,935.864 730.011,938.114 725.661,938.114C719.261,938.114 718.261,935.264 718.011,932.414L714.011,932.414C714.261,937.914 717.861,941.614 725.661,941.614C731.461,941.614 735.711,938.564 735.711,933.914C735.711,927.614 730.561,926.864 726.011,925.764Z" style="fill:url(#_Linear13);fill-rule:nonzero;"/>
                </g>
                <g transform="matrix(1,0,0,1,-460.19767,-1374)">
                    <g transform="matrix(7.047709,0,0,7.047709,-2732.2565,-5000.356882)">
                        <path d="M462.661,915.314L469.811,940.914L477.311,940.914L482.261,924.714L482.361,924.714L487.311,940.914L494.811,940.914L501.961,915.314L493.961,915.314L490.111,930.914L490.011,930.914L485.811,915.314L478.811,915.314L474.611,930.914L474.511,930.914L470.661,915.314L462.661,915.314Z" style="fill:white;fill-rule:nonzero;"/>
                        <path d="M506.611,912.264C508.861,912.264 510.611,911.064 510.611,908.714C510.611,906.414 508.861,905.164 506.611,905.164C504.361,905.164 502.611,906.414 502.611,908.714C502.611,911.064 504.361,912.264 506.611,912.264ZM502.611,915.314L502.611,940.914L510.611,940.914L510.611,915.314L502.611,915.314Z" style="fill:white;fill-rule:nonzero;"/>
                        <path d="M529.761,914.514C525.211,914.514 522.711,916.664 521.361,919.014L521.261,919.014L521.261,915.314L513.261,915.314L513.261,940.914L521.261,940.914L521.261,926.114C521.261,922.564 523.011,921.014 526.061,921.014C528.711,921.014 530.061,922.314 530.061,926.164L530.061,940.914L538.061,940.914L538.061,923.614C538.061,917.764 534.711,914.514 529.761,914.514Z" style="fill:white;fill-rule:nonzero;"/>
                        <path d="M554.611,921.314L554.611,915.314L550.161,915.314L550.161,908.164L542.161,908.164L542.161,915.314L538.611,915.314L538.611,921.314L542.161,921.314L542.161,932.514C542.161,938.264 543.811,941.364 549.661,941.364C551.911,941.364 553.161,941.114 554.611,940.814L554.611,934.814C551.211,934.814 550.161,934.814 550.161,931.914L550.161,921.314L554.611,921.314Z" style="fill:white;fill-rule:nonzero;"/>
                        <path d="M568.411,935.714C565.561,935.714 562.911,933.814 562.911,930.214L581.311,930.214C581.311,920.914 576.861,914.514 568.111,914.514C559.961,914.514 554.911,920.314 554.911,928.114C554.911,936.114 560.061,941.714 568.561,941.714C575.511,941.714 579.511,938.314 580.911,933.164L572.961,933.164C572.461,934.414 571.161,935.714 568.411,935.714ZM568.111,920.014C571.161,920.014 573.311,921.814 573.311,925.364L562.911,925.364C562.911,921.814 565.061,920.014 568.111,920.014Z" style="fill:white;fill-rule:nonzero;"/>
                        <path d="M597.161,914.864C594.361,914.864 592.161,916.664 590.911,919.514L590.811,919.514L590.811,915.314L582.811,915.314L582.811,940.914L590.811,940.914L590.811,929.014C590.811,923.564 595.161,921.314 599.261,922.064L599.361,922.064L599.361,915.064C598.461,914.864 597.861,914.864 597.161,914.864Z" style="fill:white;fill-rule:nonzero;"/>
                    </g>
                    <g transform="matrix(1,0,0,1,0,10)">
                        <circle cx="838" cy="1395" r="31" style="fill:url(#_Linear14);"/>
                    </g>
                </g>
            </g>
        </g>
    </g>
    <defs>
        <linearGradient id="_Linear2" x1="0" y1="0" x2="1" y2="0" gradientUnits="userSpaceOnUse" gradientTransform="matrix(271.85,55.955515,-55.955515,271.85,463.861442,893.808609)"><stop offset="0" style="stop-color:rgb(56,113,162);stop-opacity:1"/><stop offset="1" style="stop-color:rgb(141,117,228);stop-opacity:1"/></linearGradient>
        <linearGradient id="_Linear3" x1="0" y1="0" x2="1" y2="0" gradientUnits="userSpaceOnUse" gradientTransform="matrix(271.85,55.955515,-55.955515,271.85,463.861442,893.808609)"><stop offset="0" style="stop-color:rgb(56,113,162);stop-opacity:1"/><stop offset="1" style="stop-color:rgb(141,117,228);stop-opacity:1"/></linearGradient>
        <linearGradient id="_Linear4" x1="0" y1="0" x2="1" y2="0" gradientUnits="userSpaceOnUse" gradientTransform="matrix(271.85,55.955515,-55.955515,271.85,463.861442,893.808609)"><stop offset="0" style="stop-color:rgb(56,113,162);stop-opacity:1"/><stop offset="1" style="stop-color:rgb(141,117,228);stop-opacity:1"/></linearGradient>
        <linearGradient id="_Linear5" x1="0" y1="0" x2="1" y2="0" gradientUnits="userSpaceOnUse" gradientTransform="matrix(271.85,55.955515,-55.955515,271.85,463.861442,893.808609)"><stop offset="0" style="stop-color:rgb(56,113,162);stop-opacity:1"/><stop offset="1" style="stop-color:rgb(141,117,228);stop-opacity:1"/></linearGradient>
        <linearGradient id="_Linear6" x1="0" y1="0" x2="1" y2="0" gradientUnits="userSpaceOnUse" gradientTransform="matrix(271.85,55.955515,-55.955515,271.85,463.861442,893.808609)"><stop offset="0" style="stop-color:rgb(56,113,162);stop-opacity:1"/><stop offset="1" style="stop-color:rgb(141,117,228);stop-opacity:1"/></linearGradient>
        <linearGradient id="_Linear7" x1="0" y1="0" x2="1" y2="0" gradientUnits="userSpaceOnUse" gradientTransform="matrix(271.85,55.955515,-55.955515,271.85,463.861442,893.808609)"><stop offset="0" style="stop-color:rgb(56,113,162);stop-opacity:1"/><stop offset="1" style="stop-color:rgb(141,117,228);stop-opacity:1"/></linearGradient>
        <linearGradient id="_Linear8" x1="0" y1="0" x2="1" y2="0" gradientUnits="userSpaceOnUse" gradientTransform="matrix(271.85,55.955515,-55.955515,271.85,463.861442,893.808609)"><stop offset="0" style="stop-color:rgb(56,113,162);stop-opacity:1"/><stop offset="1" style="stop-color:rgb(141,117,228);stop-opacity:1"/></linearGradient>
        <linearGradient id="_Linear9" x1="0" y1="0" x2="1" y2="0" gradientUnits="userSpaceOnUse" gradientTransform="matrix(271.85,55.955515,-55.955515,271.85,463.861442,893.808609)"><stop offset="0" style="stop-color:rgb(56,113,162);stop-opacity:1"/><stop offset="1" style="stop-color:rgb(141,117,228);stop-opacity:1"/></linearGradient>
        <linearGradient id="_Linear10" x1="0" y1="0" x2="1" y2="0" gradientUnits="userSpaceOnUse" gradientTransform="matrix(271.85,55.955515,-55.955515,271.85,463.861442,893.808609)"><stop offset="0" style="stop-color:rgb(56,113,162);stop-opacity:1"/><stop offset="1" style="stop-color:rgb(141,117,228);stop-opacity:1"/></linearGradient>
        <linearGradient id="_Linear11" x1="0" y1="0" x2="1" y2="0" gradientUnits="userSpaceOnUse" gradientTransform="matrix(271.85,55.955515,-55.955515,271.85,463.861442,893.808609)"><stop offset="0" style="stop-color:rgb(56,113,162);stop-opacity:1"/><stop offset="1" style="stop-color:rgb(141,117,228);stop-opacity:1"/></linearGradient>
        <linearGradient id="_Linear12" x1="0" y1="0" x2="1" y2="0" gradientUnits="userSpaceOnUse" gradientTransform="matrix(271.85,55.955515,-55.955515,271.85,463.861442,893.808609)"><stop offset="0" style="stop-color:rgb(56,113,162);stop-opacity:1"/><stop offset="1" style="stop-color:rgb(141,117,228);stop-opacity:1"/></linearGradient>
        <linearGradient id="_Linear13" x1="0" y1="0" x2="1" y2="0" gradientUnits="userSpaceOnUse" gradientTransform="matrix(271.85,55.955515,-55.955515,271.85,463.861442,893.808609)"><stop offset="0" style="stop-color:rgb(56,113,162);stop-opacity:1"/><stop offset="1" style="stop-color:rgb(141,117,228);stop-opacity:1"/></linearGradient>
        <linearGradient id="_Linear14" x1="0" y1="0" x2="1" y2="0" gradientUnits="userSpaceOnUse" gradientTransform="matrix(62,50.023774,-50.023774,62,807,1368.976226)"><stop offset="0" style="stop-color:rgb(103,152,195);stop-opacity:1"/><stop offset="1" style="stop-color:rgb(73,48,107);stop-opacity:1"/></linearGradient>
    </defs>
</svg>
